<?xml version="1.0" encoding="UTF-8"?><svg xmlns="http://www.w3.org/2000/svg" viewBox="0 0 626 333.33"><g id="a"><g id="b"><path d="M376.93,33.33l4.49.48c23.46,3.45,40.55,22.12,42.44,45.69.02.27.06.64.13.9v4.87c-.07.26-.11.63-.13.9-1,13.15-6.69,24.99-16.53,33.73-.2.18-1.58,1.38-1.69,1.36l-49.76-49.72-27.85,28.26c-1.32-3.36-2.11-6.93-2.62-10.51l-.41-4.02c.06-1.6-.08-3.27,0-4.87,1.29-25.34,21.73-45.77,47.07-47.07h4.87Z" style="fill:#aa461c;"/></g></g><g id="c"><path d="M74.38,293.37c0,.97-.15,1.85-.46,2.66-.31.81-.74,1.5-1.3,2.08s-1.23,1.03-2.01,1.35c-.78.32-1.65.48-2.6.48s-1.81-.16-2.59-.48c-.78-.32-1.45-.77-2.01-1.35s-.99-1.28-1.3-2.08c-.31-.81-.46-1.69-.46-2.66s.15-1.85.46-2.66c.31-.81.74-1.5,1.3-2.09s1.23-1.04,2.01-1.36c.78-.32,1.64-.49,2.59-.49s1.81.16,2.6.49c.78.32,1.45.78,2.01,1.36s.99,1.28,1.3,2.09.46,1.69.46,2.66ZM72.58,293.37c0-.79-.11-1.5-.32-2.13-.22-.63-.52-1.16-.92-1.6-.4-.43-.88-.77-1.44-1-.56-.23-1.19-.35-1.89-.35s-1.32.12-1.88.35c-.56.23-1.05.57-1.44,1-.4.44-.71.97-.92,1.6-.22.63-.32,1.34-.32,2.13s.11,1.5.32,2.13c.22.63.52,1.16.92,1.59.4.44.88.77,1.44,1,.56.23,1.19.35,1.88.35s1.33-.12,1.89-.35c.56-.23,1.04-.56,1.44-1,.4-.43.7-.97.92-1.59.22-.63.32-1.34.32-2.13Z" style="fill:#fff;"/><path d="M88.85,298.43c.53,0,1.01-.09,1.43-.27.42-.18.78-.43,1.07-.76s.51-.71.67-1.16c.15-.45.23-.94.23-1.48v-7.84h1.74v7.84c0,.74-.12,1.43-.36,2.07-.24.64-.58,1.19-1.02,1.65-.44.47-.98.83-1.62,1.09-.64.26-1.35.4-2.14.4s-1.51-.13-2.14-.4c-.64-.26-1.18-.63-1.62-1.09-.44-.46-.78-1.01-1.02-1.65-.24-.64-.36-1.33-.36-2.07v-7.84h1.74v7.83c0,.54.08,1.04.23,1.49.15.45.37.84.67,1.16s.65.58,1.07.76c.42.18.9.27,1.44.27Z" style="fill:#fff;"/><path d="M112.83,286.92v1.47h-4.17v11.43h-1.75v-11.43h-4.19v-1.47h10.1Z" style="fill:#fff;"/><path d="M132.92,293.37c0,.97-.15,1.85-.46,2.64-.31.79-.74,1.47-1.3,2.03-.56.56-1.23,1-2.01,1.31-.78.31-1.64.46-2.59.46h-4.82v-12.9h4.82c.95,0,1.81.16,2.59.46.78.31,1.45.75,2.01,1.31.56.57.99,1.25,1.3,2.04.31.79.46,1.67.46,2.64ZM131.13,293.37c0-.79-.11-1.5-.32-2.12-.22-.62-.52-1.15-.92-1.58-.4-.43-.88-.76-1.44-.99-.56-.23-1.19-.34-1.88-.34h-3.07v10.07h3.07c.69,0,1.32-.11,1.88-.34.56-.23,1.04-.56,1.44-.99s.7-.96.92-1.58c.22-.62.32-1.33.32-2.12Z" style="fill:#fff;"/><path d="M154.35,293.37c0,.97-.15,1.85-.46,2.66-.31.81-.74,1.5-1.3,2.08s-1.23,1.03-2.01,1.35c-.78.32-1.65.48-2.6.48s-1.81-.16-2.59-.48c-.78-.32-1.45-.77-2.01-1.35s-.99-1.28-1.3-2.08c-.31-.81-.46-1.69-.46-2.66s.15-1.85.46-2.66c.31-.81.74-1.5,1.3-2.09s1.23-1.04,2.01-1.36c.78-.32,1.64-.49,2.59-.49s1.81.16,2.6.49c.78.32,1.45.78,2.01,1.36s.99,1.28,1.3,2.09.46,1.69.46,2.66ZM152.56,293.37c0-.79-.11-1.5-.32-2.13-.22-.63-.52-1.16-.92-1.6-.4-.43-.88-.77-1.44-1-.56-.23-1.19-.35-1.89-.35s-1.32.12-1.88.35c-.56.23-1.05.57-1.44,1-.4.44-.71.97-.92,1.6-.22.63-.32,1.34-.32,2.13s.11,1.5.32,2.13c.22.63.52,1.16.92,1.59.4.44.88.77,1.44,1,.56.23,1.19.35,1.88.35s1.33-.12,1.89-.35c.56-.23,1.04-.56,1.44-1,.4-.43.7-.97.92-1.59.22-.63.32-1.34.32-2.13Z" style="fill:#fff;"/><path d="M175.79,293.37c0,.97-.15,1.85-.46,2.66-.31.81-.74,1.5-1.3,2.08s-1.23,1.03-2.01,1.35c-.78.32-1.65.48-2.6.48s-1.81-.16-2.59-.48c-.78-.32-1.45-.77-2.01-1.35s-.99-1.28-1.3-2.08c-.31-.81-.46-1.69-.46-2.66s.15-1.85.46-2.66c.31-.81.74-1.5,1.3-2.09s1.23-1.04,2.01-1.36c.78-.32,1.64-.49,2.59-.49s1.81.16,2.6.49c.78.32,1.45.78,2.01,1.36s.99,1.28,1.3,2.09.46,1.69.46,2.66ZM174,293.37c0-.79-.11-1.5-.32-2.13-.22-.63-.52-1.16-.92-1.6-.4-.43-.88-.77-1.44-1-.56-.23-1.19-.35-1.89-.35s-1.32.12-1.88.35c-.56.23-1.05.57-1.44,1-.4.44-.71.97-.92,1.6-.22.63-.32,1.34-.32,2.13s.11,1.5.32,2.13c.22.63.52,1.16.92,1.59.4.44.88.77,1.44,1,.56.23,1.19.35,1.88.35s1.33-.12,1.89-.35c.56-.23,1.04-.56,1.44-1,.4-.43.7-.97.92-1.59.22-.63.32-1.34.32-2.13Z" style="fill:#fff;"/><path d="M187.16,294.43v5.38h-1.74v-12.9h3.65c.82,0,1.52.08,2.11.25.59.17,1.08.4,1.47.72.39.31.67.69.86,1.13.19.44.28.93.28,1.48,0,.46-.07.88-.22,1.28-.14.4-.35.75-.63,1.07s-.61.58-1,.81-.84.39-1.34.5c.22.13.41.31.58.55l3.76,5.12h-1.55c-.32,0-.55-.12-.7-.37l-3.35-4.61c-.1-.14-.21-.25-.33-.31-.12-.06-.3-.09-.54-.09h-1.32ZM187.16,293.16h1.83c.51,0,.96-.06,1.35-.18.39-.12.71-.3.97-.52.26-.22.46-.49.59-.81.13-.31.2-.66.2-1.04,0-.77-.25-1.35-.76-1.74-.51-.39-1.26-.58-2.26-.58h-1.91v4.87Z" style="fill:#fff;"/><path d="M225.07,299.82h-1.35c-.16,0-.28-.04-.38-.12-.1-.08-.17-.18-.22-.3l-1.21-3.11h-5.79l-1.21,3.11c-.04.11-.11.2-.22.29s-.23.13-.38.13h-1.35l5.16-12.9h1.77l5.16,12.9ZM216.62,295.03h4.81l-2.02-5.25c-.13-.32-.26-.73-.39-1.21-.07.25-.13.47-.19.68s-.12.39-.18.54l-2.02,5.24Z" style="fill:#fff;"/><path d="M244.95,293.37c0,.97-.15,1.85-.46,2.64-.31.79-.74,1.47-1.3,2.03-.56.56-1.23,1-2.01,1.31-.78.31-1.64.46-2.59.46h-4.82v-12.9h4.82c.95,0,1.81.16,2.59.46.78.31,1.45.75,2.01,1.31.56.57.99,1.25,1.3,2.04.31.79.46,1.67.46,2.64ZM243.16,293.37c0-.79-.11-1.5-.32-2.12-.22-.62-.52-1.15-.92-1.58-.4-.43-.88-.76-1.44-.99-.56-.23-1.19-.34-1.88-.34h-3.07v10.07h3.07c.69,0,1.32-.11,1.88-.34.56-.23,1.04-.56,1.44-.99s.7-.96.92-1.58c.22-.62.32-1.33.32-2.12Z" style="fill:#fff;"/><path d="M252.44,286.92h1.4c.16,0,.28.04.38.12.1.08.17.18.22.3l3.65,9.1c.08.2.16.43.23.67.07.24.14.49.2.75.05-.26.11-.51.18-.75s.14-.46.22-.67l3.63-9.1c.04-.1.11-.2.22-.28s.23-.13.38-.13h1.4l-5.26,12.9h-1.57l-5.26-12.9Z" style="fill:#fff;"/><path d="M281.19,286.92v1.42h-6.19v4.28h5.01v1.37h-5.01v4.4h6.19v1.42h-7.95v-12.9h7.95Z" style="fill:#fff;"/><path d="M292.03,286.98c.08.04.16.12.26.24l7.47,9.72c-.02-.16-.03-.31-.04-.46,0-.15,0-.29,0-.43v-9.14h1.53v12.9h-.88c-.14,0-.25-.02-.35-.07-.09-.05-.18-.13-.27-.24l-7.46-9.71c.01.15.02.3.03.44s0,.28,0,.4v9.19h-1.53v-12.9h.9c.16,0,.27.02.35.06Z" style="fill:#fff;"/><path d="M320.25,286.92v1.47h-4.17v11.43h-1.75v-11.43h-4.19v-1.47h10.1Z" style="fill:#fff;"/><path d="M334.17,298.43c.53,0,1.01-.09,1.43-.27.42-.18.78-.43,1.07-.76s.51-.71.67-1.16c.15-.45.23-.94.23-1.48v-7.84h1.74v7.84c0,.74-.12,1.43-.36,2.07-.24.64-.58,1.19-1.02,1.65-.44.47-.98.83-1.62,1.09s-1.35.4-2.14.4-1.51-.13-2.14-.4c-.64-.26-1.18-.63-1.62-1.09-.44-.46-.79-1.01-1.02-1.65-.24-.64-.36-1.33-.36-2.07v-7.84h1.74v7.83c0,.54.08,1.04.23,1.49.15.45.38.84.67,1.16s.65.58,1.07.76c.42.18.9.27,1.44.27Z" style="fill:#fff;"/><path d="M351.29,294.43v5.38h-1.74v-12.9h3.64c.82,0,1.52.08,2.12.25s1.08.4,1.47.72c.39.31.67.69.86,1.13.19.44.28.93.28,1.48,0,.46-.07.88-.22,1.28-.14.4-.35.75-.63,1.07s-.61.58-1,.81-.84.39-1.34.5c.22.13.41.31.58.55l3.76,5.12h-1.55c-.32,0-.55-.12-.7-.37l-3.35-4.61c-.1-.14-.21-.25-.33-.31-.12-.06-.3-.09-.54-.09h-1.32ZM351.29,293.16h1.83c.51,0,.96-.06,1.35-.18.39-.12.71-.3.97-.52.26-.22.46-.49.59-.81.13-.31.2-.66.2-1.04,0-.77-.25-1.35-.76-1.74-.51-.39-1.26-.58-2.26-.58h-1.91v4.87Z" style="fill:#fff;"/><path d="M375.98,286.92v1.42h-6.19v4.28h5.01v1.37h-5.01v4.4h6.19v1.42h-7.95v-12.9h7.95Z" style="fill:#fff;"/><path d="M405.21,297.15c.1,0,.18.04.26.12l.68.75c-.53.61-1.17,1.09-1.92,1.43s-1.66.51-2.72.51c-.93,0-1.77-.16-2.53-.48-.76-.32-1.4-.77-1.93-1.35s-.95-1.27-1.24-2.08c-.29-.81-.44-1.7-.44-2.67s.16-1.86.47-2.67c.32-.81.76-1.51,1.33-2.09.57-.58,1.25-1.03,2.05-1.35s1.67-.48,2.63-.48,1.77.15,2.45.44c.69.29,1.3.69,1.83,1.2l-.57.8c-.04.06-.09.11-.14.15-.05.04-.13.06-.23.06-.08,0-.16-.03-.25-.09s-.19-.13-.31-.21c-.12-.08-.26-.17-.42-.27-.16-.1-.35-.19-.58-.27-.22-.08-.48-.15-.77-.21s-.63-.09-1.02-.09c-.69,0-1.32.12-1.89.36-.57.24-1.07.58-1.48,1.01-.41.44-.74.97-.97,1.6-.23.63-.35,1.33-.35,2.11s.12,1.52.35,2.15c.23.63.55,1.16.95,1.6.4.43.87.77,1.42.99.55.23,1.13.34,1.76.34.38,0,.73-.02,1.03-.07.31-.04.59-.12.85-.21.26-.1.5-.22.73-.37.22-.15.45-.32.68-.53.1-.09.2-.13.3-.13Z" style="fill:#fff;"/><path d="M427.5,293.37c0,.97-.15,1.85-.46,2.66-.31.81-.74,1.5-1.3,2.08s-1.23,1.03-2.01,1.35c-.78.32-1.65.48-2.6.48s-1.81-.16-2.59-.48c-.78-.32-1.45-.77-2.01-1.35s-.99-1.28-1.3-2.08c-.31-.81-.46-1.69-.46-2.66s.15-1.85.46-2.66.74-1.5,1.3-2.09,1.23-1.04,2.01-1.36c.78-.32,1.64-.49,2.59-.49s1.81.16,2.6.49c.78.32,1.45.78,2.01,1.36s.99,1.28,1.3,2.09.46,1.69.46,2.66ZM425.71,293.37c0-.79-.11-1.5-.32-2.13-.22-.63-.52-1.16-.92-1.6-.4-.43-.88-.77-1.44-1-.56-.23-1.19-.35-1.89-.35s-1.32.12-1.88.35c-.56.23-1.04.57-1.44,1-.4.44-.71.97-.92,1.6-.22.63-.32,1.34-.32,2.13s.11,1.5.32,2.13c.22.63.52,1.16.92,1.59.4.44.88.77,1.44,1,.56.23,1.19.35,1.88.35s1.33-.12,1.89-.35c.56-.23,1.04-.56,1.44-1,.4-.43.7-.97.92-1.59.22-.63.32-1.34.32-2.13Z" style="fill:#fff;"/><path d="M443.52,295.61c.06.16.12.32.18.48.06-.17.12-.33.19-.48.07-.15.14-.31.23-.46l4.36-7.93c.08-.14.16-.22.24-.25.08-.03.2-.05.36-.05h1.29v12.9h-1.53v-9.48c0-.13,0-.26,0-.41,0-.14.01-.29.03-.44l-4.42,8.06c-.15.27-.36.41-.63.41h-.25c-.27,0-.48-.14-.63-.41l-4.52-8.09c.02.16.03.31.04.46,0,.15.01.29.01.41v9.48h-1.53v-12.9h1.29c.16,0,.28.02.36.05.08.03.17.11.24.25l4.46,7.94c.08.14.16.3.22.46Z" style="fill:#fff;"/><path d="M467.16,295.61c.06.16.12.32.18.48.06-.17.12-.33.19-.48.07-.15.14-.31.23-.46l4.36-7.93c.08-.14.16-.22.24-.25.08-.03.2-.05.36-.05h1.29v12.9h-1.53v-9.48c0-.13,0-.26,0-.41,0-.14.01-.29.03-.44l-4.42,8.06c-.15.27-.36.41-.63.41h-.25c-.27,0-.48-.14-.63-.41l-4.52-8.09c.02.16.03.31.04.46,0,.15.01.29.01.41v9.48h-1.53v-12.9h1.29c.16,0,.28.02.36.05.08.03.17.11.24.25l4.46,7.94c.08.14.16.3.22.46Z" style="fill:#fff;"/><path d="M489.24,298.43c.53,0,1.01-.09,1.43-.27.42-.18.78-.43,1.07-.76s.51-.71.67-1.16c.15-.45.23-.94.23-1.48v-7.84h1.74v7.84c0,.74-.12,1.43-.36,2.07-.24.64-.58,1.19-1.02,1.65-.44.47-.98.83-1.62,1.09s-1.35.4-2.14.4-1.51-.13-2.14-.4c-.64-.26-1.18-.63-1.62-1.09-.44-.46-.79-1.01-1.02-1.65-.24-.64-.36-1.33-.36-2.07v-7.84h1.74v7.83c0,.54.08,1.04.23,1.49.15.45.38.84.67,1.16s.65.58,1.07.76c.42.18.9.27,1.44.27Z" style="fill:#fff;"/><path d="M505.68,286.98c.08.04.16.12.26.24l7.47,9.72c-.02-.16-.03-.31-.04-.46,0-.15,0-.29,0-.43v-9.14h1.53v12.9h-.88c-.14,0-.25-.02-.35-.07-.09-.05-.18-.13-.27-.24l-7.46-9.71c.01.15.02.3.03.44s0,.28,0,.4v9.19h-1.53v-12.9h.9c.16,0,.27.02.35.06Z" style="fill:#fff;"/><path d="M527.19,299.82h-1.75v-12.9h1.75v12.9Z" style="fill:#fff;"/><path d="M546.5,286.92v1.47h-4.17v11.43h-1.75v-11.43h-4.18v-1.47h10.1Z" style="fill:#fff;"/><path d="M560.38,294.69v5.13h-1.74v-5.13l-4.72-7.77h1.53c.16,0,.28.04.37.12.09.08.17.17.23.29l2.95,5.01c.12.21.22.41.3.59.08.19.15.37.22.55.07-.19.14-.37.22-.56.08-.19.18-.38.3-.58l2.94-5.01c.05-.1.13-.19.22-.27s.21-.13.36-.13h1.55l-4.73,7.77Z" style="fill:#fff;"/><path d="M33.85,205.9v-12.85h37.8v12.85h-11.34v57.02h-15.12v-57.02h-11.34Z" style="fill:#fff;"/><path d="M96.49,234.3v28.62h-15.12v-69.88h26.89c8.93,0,13.39,4.75,13.39,14.26v8.1c0,5.76-2.05,9.43-6.16,11.02,3.6,1.3,5.4,4.25,5.4,8.86v27.65h-15.12v-26.46c0-1.44-.69-2.16-2.05-2.16h-7.24ZM96.49,203.3v20.41h7.99c.58,0,1.06-.22,1.46-.65.39-.43.59-.93.59-1.51v-16.09c0-.58-.2-1.08-.59-1.51-.4-.43-.88-.65-1.46-.65h-7.99Z" style="fill:#fff;"/><path d="M161.94,191.96c8.93,0,13.39,4.75,13.39,14.26v56.7h-15.12v-23.44h-10.91v23.44h-15.12v-56.7c0-9.5,4.46-14.26,13.39-14.26h14.36ZM149.31,227.82h10.91v-23.44c0-.58-.2-1.08-.59-1.51-.4-.43-.88-.65-1.46-.65h-6.8c-.58,0-1.06.22-1.46.65-.4.43-.59.94-.59,1.51v23.44Z" style="fill:#fff;"/><path d="M204.49,193.04v69.88h-15.12v-69.88h15.12Z" style="fill:#fff;"/><path d="M233.65,250.18h16.52v12.74h-31.64v-69.88h15.12v57.13Z" style="fill:#fff;"/><path d="M294.24,224.69c4.68,1.66,7.02,5.47,7.02,11.45v12.53c0,9.5-4.46,14.26-13.39,14.26h-27.76v-69.88h26.89c8.93,0,13.39,4.75,13.39,14.26v6.37c0,5.76-2.05,9.43-6.16,11.02ZM283.22,203.3h-7.99v18.68h7.99c.58,0,1.06-.22,1.46-.65.39-.43.59-.93.59-1.51v-14.36c0-.58-.2-1.08-.59-1.51-.4-.43-.88-.65-1.46-.65ZM286.14,250.39v-15.66c0-.58-.2-1.08-.59-1.51-.4-.43-.88-.65-1.46-.65h-8.86v19.98h8.86c.58,0,1.06-.22,1.46-.65.4-.43.59-.93.59-1.51Z" style="fill:#fff;"/><path d="M329.55,250.18h16.52v12.74h-31.64v-69.88h15.12v57.13Z" style="fill:#fff;"/><path d="M383.77,191.96c8.93,0,13.39,4.75,13.39,14.26v56.7h-15.12v-23.44h-10.91v23.44h-15.12v-56.7c0-9.5,4.46-14.26,13.39-14.26h14.36ZM371.13,227.82h10.91v-23.44c0-.58-.2-1.08-.59-1.51-.4-.43-.88-.65-1.46-.65h-6.8c-.58,0-1.06.22-1.46.65-.4.43-.59.94-.59,1.51v23.44Z" style="fill:#fff;"/><path d="M445.87,202.87l-20.84,48.82h20.84v11.23h-36.61v-9.29l20.95-49.25h-20.3v-11.34h35.96v9.83Z" style="fill:#fff;"/><path d="M472,250.39h16.74v12.53h-31.86v-69.88h31.86v12.31h-16.74v16.42h15.66v11.88h-15.66v16.74Z" style="fill:#fff;"/><path d="M515.42,234.3v28.62h-15.12v-69.88h26.89c8.93,0,13.39,4.75,13.39,14.26v8.1c0,5.76-2.05,9.43-6.16,11.02,3.6,1.3,5.4,4.25,5.4,8.86v27.65h-15.12v-26.46c0-1.44-.68-2.16-2.05-2.16h-7.24ZM515.42,203.3v20.41h7.99c.58,0,1.06-.22,1.46-.65.4-.43.59-.93.59-1.51v-16.09c0-.58-.2-1.08-.59-1.51-.4-.43-.88-.65-1.46-.65h-7.99Z" style="fill:#fff;"/><path d="M591.88,211.4h-14.36v-5.51c0-.58-.2-1.08-.59-1.51-.4-.43-.88-.65-1.46-.65h-5.94c-.58,0-1.06.22-1.46.65-.4.43-.59.94-.59,1.51v12.42c0,.58.2,1.08.59,1.51.39.43.88.65,1.46.65h9.72c8.93.15,13.39,4.9,13.39,14.26v15.01c0,9.5-4.46,14.26-13.39,14.26h-12.74c-8.93,0-13.39-4.75-13.39-14.26v-7.24h14.36v7.78c0,.58.2,1.08.59,1.51.39.43.88.65,1.46.65h6.7c.58,0,1.06-.22,1.46-.65.4-.43.59-.94.59-1.51v-13.72c0-.58-.2-1.08-.59-1.51-.4-.43-.88-.65-1.46-.65h-9.72c-8.93,0-13.39-4.75-13.39-14.26v-13.93c0-9.5,4.46-14.26,13.39-14.26h11.99c8.93,0,13.39,4.75,13.39,14.26v5.18Z" style="fill:#fff;"/><g id="d"><path d="M283.81,61l40.88,40.92,31.64-31.53,103.04,103.27h-13.13c-26.2-25.89-52.43-51.75-78.65-77.6-3.8-3.75-7.45-7.68-11.46-11.21l-47.73,48.14,14.93,14.68,32.12-32,61.8,57.99h-13.26l-48.25-44.41-.4-.13-12.46,12.59,35.45,31.95h-13.26l-28.15-24.52-13.11,12.6-41.52-41.28-55.59,53.2h-13.66l69.18-66.61,18.87,18.57,16.6-16.7-.13-.27-33.92-33.65-102.93,98.66h-13.8l116.64-112.67h.27Z" style="fill:#fff;"/><polygon points="314.47 173.67 300.27 173.67 281.32 157.82 262.28 173.67 248.08 173.67 281.23 143.54 314.47 173.67" style="fill:#fff;"/></g></g></svg>